<svg xmlns="http://www.w3.org/2000/svg" xmlns:xlink="http://www.w3.org/1999/xlink" viewBox="0,0,256,256" width="30px" height="30px" fill-rule="nonzero"><g fill="#fbfbfb" fill-rule="nonzero" stroke="none" stroke-width="1" stroke-linecap="butt" stroke-linejoin="miter" stroke-miterlimit="10" stroke-dasharray="" stroke-dashoffset="0" font-family="none" font-weight="none" font-size="none" text-anchor="none" style="mix-blend-mode: normal"><path d="M0,256v-256h256v256z" id="bgRectangle"></path></g><g fill="#282828" fill-rule="nonzero" stroke="none" stroke-width="1" stroke-linecap="butt" stroke-linejoin="miter" stroke-miterlimit="10" stroke-dasharray="" stroke-dashoffset="0" font-family="none" font-weight="none" font-size="none" text-anchor="none" style="mix-blend-mode: normal"><g transform="scale(4,4)"><path d="M32,6c-14.358,0 -26,11.642 -26,26c0,11.015 6.853,20.423 16.525,24.21c-0.227,-2.056 -0.433,-5.213 0.091,-7.458c0.472,-2.028 3.049,-12.924 3.049,-12.924c0,0 -0.778,-1.558 -0.778,-3.859c0,-3.616 2.095,-6.314 4.704,-6.314c2.219,0 3.289,1.666 3.289,3.662c0,2.232 -1.419,5.566 -2.154,8.656c-0.613,2.589 1.298,4.7 3.85,4.7c4.621,0 8.173,-4.873 8.173,-11.906c0,-6.225 -4.472,-10.578 -10.859,-10.578c-7.397,0 -11.739,5.549 -11.739,11.284c0,2.234 0.86,4.63 1.935,5.934c0.212,0.258 0.243,0.483 0.18,0.745c-0.197,0.821 -0.635,2.587 -0.722,2.949c-0.113,0.477 -0.377,0.576 -0.869,0.347c-3.248,-1.512 -5.278,-6.259 -5.278,-10.073c0,-8.201 5.958,-15.734 17.18,-15.734c9.02,0 16.029,6.426 16.029,15.017c0,8.961 -5.651,16.172 -13.492,16.172c-2.635,0 -5.111,-1.369 -5.958,-2.986c0,0 -1.304,4.964 -1.621,6.181c-0.587,2.258 -2.171,5.09 -3.233,6.816c2.433,0.752 5.018,1.159 7.698,1.159c14.358,0 26,-11.642 26,-26c0,-14.358 -11.641,-26 -26,-26z"></path></g></g></svg>