<svg xmlns="http://www.w3.org/2000/svg"  viewBox="0 0 24 24" width="72px" height="72px"><path d="M 12 2 C 6.491694 2 1.9833543 6.49196 2 12.003906 C 2.012704 16.14427 3.4839174 19.136957 5.1738281 21.564453 A 1.0004433 1.0004433 0 1 0 6.8164062 20.421875 C 5.248317 18.169371 4.0112962 15.67773 4 11.996094 C 3.9866457 7.57404 7.574306 4 12 4 C 16.497099 4 19.964844 7.0383583 19.964844 11.46875 A 1.0001 1.0001 0 0 0 19.966797 11.529297 A 1.0001 1.0001 0 0 0 19.966797 11.533203 A 1.0001 1.0001 0 0 0 19.964844 11.603516 C 19.964844 12.402826 19.328466 13.005859 18.496094 13.005859 C 17.696784 13.005859 17.007813 12.324597 17.007812 11.535156 A 1.0001 1.0001 0 0 0 17.005859 11.484375 L 16.982422 11.044922 C 16.982422 8.2987275 14.732522 6.0507812 11.986328 6.0507812 C 9.2407975 6.0507812 6.990785 8.2985375 6.9921875 11.044922 C 6.9953575 16.090847 9.2205769 19.283516 12.375 21.785156 A 1.0001 1.0001 0 1 0 13.617188 20.21875 C 10.72161 17.92239 8.995014 15.538997 8.9921875 11.044922 C 8.9906794 9.3822109 10.322522 8.0507812 11.986328 8.0507812 C 13.650134 8.0507812 14.982422 9.381116 14.982422 11.044922 A 1.0001 1.0001 0 0 0 14.982422 11.095703 L 15.007812 11.585938 L 15.007812 11.535156 C 15.007812 13.447716 16.593404 15.005859 18.496094 15.005859 C 20.365722 15.005859 21.964844 13.506206 21.964844 11.603516 A 1.0001 1.0001 0 0 0 21.962891 11.542969 A 1.0001 1.0001 0 0 0 21.962891 11.539062 A 1.0001 1.0001 0 0 0 21.964844 11.46875 C 21.964844 5.9651417 17.436901 2 12 2 z M 11.988281 10.986328 A 1.0001 1.0001 0 0 0 11 11.998047 C 10.9936 14.340389 12.169175 16.371179 13.855469 17.771484 C 15.541763 19.17179 17.747049 19.993263 19.996094 20 A 1.0001 1.0001 0 1 0 20.003906 18 C 18.246963 17.994737 16.447769 17.324366 15.132812 16.232422 C 13.817858 15.140477 12.995411 13.678611 13 12.001953 A 1.0001 1.0001 0 0 0 11.988281 10.986328 z"/></svg>